<?xml version="1.0" standalone="no"?>
<!DOCTYPE svg PUBLIC "-//W3C//DTD SVG 20010904//EN"
 "http://www.w3.org/TR/2001/REC-SVG-20010904/DTD/svg10.dtd">
<svg version="1.0" xmlns="http://www.w3.org/2000/svg"
 width="198.000000pt" height="198.000000pt" viewBox="0 0 198.000000 198.000000"
 preserveAspectRatio="xMidYMid meet">
<metadata>
Created by potrace 1.11, written by Peter Selinger 2001-2013
</metadata>
<g transform="translate(0.000000,198.000000) scale(0.100000,-0.100000)"
fill="#000000" stroke="none">
<path d="M0 990 l0 -990 990 0 990 0 0 990 0 990 -990 0 -990 0 0 -990z m337
-107 c-1 -59 -3 -14 -3 102 0 116 2 164 3 108 2 -56 2 -151 0 -210z m147 285
c8 -13 8 -23 -1 -37 -9 -14 -8 -22 5 -34 13 -13 13 -21 4 -42 -10 -21 -18 -25
-52 -25 l-40 0 0 81 0 80 36 -3 c22 -2 42 -10 48 -20z m63 -100 c-2 -24 -4 -5
-4 42 0 47 2 66 4 43 2 -24 2 -62 0 -85z m167 114 c3 -5 -8 -6 -25 -4 -46 7
-79 -21 -79 -67 0 -50 26 -75 74 -69 19 2 32 0 30 -4 -9 -14 -68 -9 -91 7 -30
21 -38 66 -19 103 9 17 21 32 28 35 21 9 76 8 82 -1z m53 -114 c-2 -24 -4 -5
-4 42 0 47 2 66 4 43 2 -24 2 -62 0 -85z m173 114 c0 -4 -15 -6 -34 -4 -43 5
-76 -25 -76 -68 0 -43 33 -73 76 -68 19 2 34 0 34 -4 0 -4 -18 -8 -40 -8 -52
0 -80 27 -80 77 0 51 32 83 82 83 21 0 38 -4 38 -8z m108 -145 l47 -3 -52 -2
-53 -2 2 83 2 82 3 -77 4 -77 47 -4z m140 146 c-46 -4 -48 -6 -48 -34 0 -27 3
-29 35 -29 19 0 35 -4 35 -10 0 -5 -16 -10 -35 -10 -32 0 -35 -2 -35 -29 0
-28 2 -30 48 -34 l47 -3 -52 -2 -53 -2 0 80 0 80 53 -2 52 -2 -47 -3z m160 0
c-28 -4 -28 -6 -30 -81 l-2 -77 -3 77 c-4 75 -5 77 -31 81 -15 2 0 4 33 4 33
0 48 -2 33 -4z m125 -35 c8 -24 22 -60 31 -80 9 -21 12 -38 7 -38 -5 0 -12 11
-15 25 -5 21 -12 25 -46 25 -22 0 -40 -4 -40 -8 0 -5 -7 -17 -15 -28 -13 -16
-13 -13 1 21 9 22 23 59 32 83 9 23 19 42 23 42 4 0 14 -19 22 -42z m137 33
c-47 -8 -48 -40 -2 -60 36 -16 51 -53 32 -76 -13 -16 -75 -21 -84 -7 -3 5 8 6
25 4 31 -5 59 11 59 34 0 7 -18 23 -40 34 -29 15 -40 27 -40 44 0 31 7 36 49
35 l36 -2 -35 -6z m-575 -201 c4 -6 11 -7 17 -4 7 4 8 2 4 -5 -5 -8 -12 -9
-19 -3 -7 5 -19 12 -27 15 -12 4 -12 6 2 6 9 1 20 -4 23 -9z m-575 -39 c-42
-6 -45 -8 -45 -36 0 -27 4 -31 40 -36 l40 -6 -36 -2 c-31 -1 -37 -5 -41 -26
-7 -32 -3 -35 51 -35 32 0 42 -3 34 -11 -5 -5 -30 -9 -54 -7 l-44 3 -3 83 -3
82 53 -2 53 -1 -45 -6z m163 1 c3 -4 -9 -7 -26 -7 -25 0 -32 -4 -32 -20 0 -11
10 -24 21 -30 38 -19 54 -37 54 -61 0 -39 -50 -56 -86 -29 -18 14 -17 14 9 5
35 -12 67 2 67 30 0 13 -14 27 -40 40 -41 21 -51 45 -28 68 13 13 54 16 61 4z
m136 -6 c7 -8 11 -27 9 -43 -2 -21 -10 -29 -35 -36 -26 -8 -33 -16 -36 -41 -2
-17 -5 6 -5 52 l-2 82 29 0 c16 0 34 -6 40 -14z m131 -66 c18 -45 30 -83 27
-86 -2 -3 -9 9 -15 25 -9 27 -16 31 -46 31 -28 0 -38 -6 -50 -27 -22 -40 -19
-22 5 39 12 29 25 63 30 76 5 12 10 22 13 22 2 0 18 -36 36 -80z m148 -2 l51
-57 4 72 3 72 2 -85 1 -85 -64 70 -64 69 -4 -69 -3 -70 -2 85 c-2 72 0 82 12
70 7 -8 36 -41 64 -72z m205 4 c29 -68 36 -105 11 -59 -11 21 -22 27 -48 27
-28 0 -36 -5 -46 -30 -7 -17 -14 -29 -17 -27 -2 2 11 41 28 86 18 45 35 78 39
74 4 -4 19 -36 33 -71z"/>
<path d="M412 1150 c-2 -27 1 -30 27 -30 32 0 48 24 30 46 -6 8 -21 14 -33 14
-17 0 -22 -7 -24 -30z"/>
<path d="M416 1092 c-12 -20 2 -47 26 -50 33 -4 56 22 38 43 -13 16 -55 20
-64 7z"/>
<path d="M1431 1129 c-6 -18 -11 -34 -11 -35 0 -2 14 -4 31 -4 26 0 30 3 24
18 -4 9 -10 25 -12 35 -8 26 -20 21 -32 -14z"/>
<path d="M700 900 c0 -41 8 -47 41 -30 34 19 18 70 -23 70 -14 0 -18 -8 -18
-40z"/>
<path d="M838 890 l-16 -40 29 0 c33 0 34 5 16 49 l-14 32 -15 -41z"/>
<path d="M1191 888 c-6 -17 -11 -33 -11 -34 0 -2 13 -4 29 -4 29 0 30 1 19 30
-14 42 -24 45 -37 8z"/>
</g>
</svg>
